<?xml version="1.0" encoding="UTF-8" standalone="no"?><svg xmlns="http://www.w3.org/2000/svg" xmlns:xlink="http://www.w3.org/1999/xlink" contentStyleType="text/css" height="878px" preserveAspectRatio="none" style="width:345px;height:878px;background:#FFFFFF;" version="1.1" viewBox="0 0 345 878" width="345px" zoomAndPan="magnify"><defs/><g><!--MD5=[3e3d88975c19b443f9f00843faf08e28]
class Time-stamps--><g id="elem_Time-stamps"><rect codeLine="8" fill="#F1F1F1" height="136.0469" id="Time-stamps" rx="2.5" ry="2.5" style="stroke:#181818;stroke-width:0.5;" width="331.3333" x="7" y="7"/><ellipse cx="127.9167" cy="23" fill="#FFFFFF" rx="11" ry="11" style="stroke:#181818;stroke-width:1.0;"/><path d="M128.8385,20.3906 L128.8385,27.0469 L129.9948,27.0469 Q130.6042,27.0469 130.862,27.2813 Q131.1198,27.5156 131.1198,27.9063 Q131.1198,28.2813 130.862,28.5156 Q130.6042,28.75 129.9948,28.75 L126.0104,28.75 Q125.3854,28.75 125.1276,28.5156 Q124.8698,28.2813 124.8698,27.8906 Q124.8698,27.5156 125.1276,27.2813 Q125.3854,27.0469 126.0104,27.0469 L127.1354,27.0469 L127.1354,20.3906 L125.2917,20.3906 L125.2917,22 Q125.2917,22.6094 125.0573,22.875 Q124.8229,23.1406 124.4479,23.1406 Q124.0729,23.1406 123.8385,22.875 Q123.6042,22.6094 123.6042,22 L123.6042,18.6875 L132.4167,18.6875 L132.4167,22 Q132.4167,22.6094 132.1745,22.875 Q131.9323,23.1406 131.5573,23.1406 Q131.1823,23.1406 130.9479,22.875 Q130.7135,22.6094 130.7135,22 L130.7135,20.3906 L128.8385,20.3906 Z " fill="#000000"/><text fill="#000000" font-family="sans-serif" font-size="14" lengthAdjust="spacing" textLength="81" x="148.4167" y="28.7285">Time-stamps</text><line style="stroke:#181818;stroke-width:0.5;" x1="8" x2="337.3333" y1="39" y2="39"/><path d="M20.4167,47.776 C18.8067,47.776 17.5,49.0827 17.5,50.6927 C17.5,50.8794 17.5,51.066 17.535,51.241 L14,54.776 L14,57.1094 L17.5,57.1094 L17.5,54.776 L19.8333,54.776 L19.8333,53.6094 L19.8683,53.5744 C20.0433,53.6094 20.23,53.6094 20.4167,53.6094 C22.0267,53.6094 23.3333,52.3027 23.3333,50.6927 C23.3333,49.0827 22.0267,47.776 20.4167,47.776 M21,48.9427 C21.6417,48.9427 22.1667,49.4677 22.1667,50.1094 C22.1667,50.751 21.6417,51.276 21,51.276 C20.3583,51.276 19.8333,50.751 19.8333,50.1094 C19.8333,49.4677 20.3583,48.9427 21,48.9427 " fill="#B8861B" style="stroke:;stroke-width:0.0;stroke-dasharray:;"/><text fill="#000000" font-family="sans-serif" font-size="14" font-weight="bold" lengthAdjust="spacing" textLength="111" x="28.3333" y="57.5332">UTC_Timestamp</text><text fill="#000000" font-family="sans-serif" font-size="14" lengthAdjust="spacing" textLength="193" x="139.3333" y="57.5332">: Time stamp without time zone</text><path d="M20.4167,65.3854 C18.8067,65.3854 17.5,66.6921 17.5,68.3021 C17.5,68.4888 17.5,68.6754 17.535,68.8504 L14,72.3854 L14,74.7187 L17.5,74.7187 L17.5,72.3854 L19.8333,72.3854 L19.8333,71.2187 L19.8683,71.1837 C20.0433,71.2187 20.23,71.2187 20.4167,71.2187 C22.0267,71.2187 23.3333,69.9121 23.3333,68.3021 C23.3333,66.6921 22.0267,65.3854 20.4167,65.3854 M21,66.5521 C21.6417,66.5521 22.1667,67.0771 22.1667,67.7187 C22.1667,68.3604 21.6417,68.8854 21,68.8854 C20.3583,68.8854 19.8333,68.3604 19.8333,67.7187 C19.8333,67.0771 20.3583,66.5521 21,66.5521 " fill="#AAAAAA" style="stroke:;stroke-width:0.0;stroke-dasharray:;"/><text fill="#000000" font-family="sans-serif" font-size="14" lengthAdjust="spacing" textLength="140" x="28.3333" y="75.1426">CAID: Character array</text><text fill="#000000" font-family="sans-serif" font-size="14" lengthAdjust="spacing" textLength="4" x="13" y="92.752"> </text><path d="M17.5,100.6042 C15.5633,100.6042 14,102.1675 14,104.1042 C14,106.0408 15.5633,107.6042 17.5,107.6042 C19.4367,107.6042 21,106.0408 21,104.1042 C21,102.1675 19.4367,100.6042 17.5,100.6042 " fill="#EFEFEF" style="stroke:;stroke-width:0.0;stroke-dasharray:;"/><text fill="#000000" font-family="sans-serif" font-size="14" lengthAdjust="spacing" textLength="141" x="28.3333" y="110.3613">Minimum_dwell: Big int</text><path d="M17.5,118.2135 C15.5633,118.2135 14,119.7769 14,121.7135 C14,123.6502 15.5633,125.2135 17.5,125.2135 C19.4367,125.2135 21,123.6502 21,121.7135 C21,119.7769 19.4367,118.2135 17.5,118.2135 " fill="#EFEFEF" style="stroke:;stroke-width:0.0;stroke-dasharray:;"/><text fill="#000000" font-family="sans-serif" font-size="14" lengthAdjust="spacing" textLength="294" x="28.3333" y="127.9707">local_timestamp: Time stamp without time zone</text><line style="stroke:#181818;stroke-width:0.5;" x1="8" x2="337.3333" y1="135.0469" y2="135.0469"/></g><!--MD5=[405477349a3a71c390fc37d1d6968146]
class Device-Info--><g id="elem_Device-Info"><rect codeLine="16" fill="#F1F1F1" height="136.0469" id="Device-Info" rx="2.5" ry="2.5" style="stroke:#181818;stroke-width:0.5;" width="331.3333" x="7" y="434"/><ellipse cx="132.9167" cy="450" fill="#FFFFFF" rx="11" ry="11" style="stroke:#181818;stroke-width:1.0;"/><path d="M133.8385,447.3906 L133.8385,454.0469 L134.9948,454.0469 Q135.6042,454.0469 135.862,454.2813 Q136.1198,454.5156 136.1198,454.9063 Q136.1198,455.2813 135.862,455.5156 Q135.6042,455.75 134.9948,455.75 L131.0104,455.75 Q130.3854,455.75 130.1276,455.5156 Q129.8698,455.2813 129.8698,454.8906 Q129.8698,454.5156 130.1276,454.2813 Q130.3854,454.0469 131.0104,454.0469 L132.1354,454.0469 L132.1354,447.3906 L130.2917,447.3906 L130.2917,449 Q130.2917,449.6094 130.0573,449.875 Q129.8229,450.1406 129.4479,450.1406 Q129.0729,450.1406 128.8385,449.875 Q128.6042,449.6094 128.6042,449 L128.6042,445.6875 L137.4167,445.6875 L137.4167,449 Q137.4167,449.6094 137.1745,449.875 Q136.9323,450.1406 136.5573,450.1406 Q136.1823,450.1406 135.9479,449.875 Q135.7135,449.6094 135.7135,449 L135.7135,447.3906 L133.8385,447.3906 Z " fill="#000000"/><text fill="#000000" font-family="sans-serif" font-size="14" lengthAdjust="spacing" textLength="71" x="153.4167" y="455.7285">Device-Info</text><line style="stroke:#181818;stroke-width:0.5;" x1="8" x2="337.3333" y1="466" y2="466"/><path d="M20.4167,474.776 C18.8067,474.776 17.5,476.0827 17.5,477.6927 C17.5,477.8794 17.5,478.066 17.535,478.241 L14,481.776 L14,484.1094 L17.5,484.1094 L17.5,481.776 L19.8333,481.776 L19.8333,480.6094 L19.8683,480.5744 C20.0433,480.6094 20.23,480.6094 20.4167,480.6094 C22.0267,480.6094 23.3333,479.3027 23.3333,477.6927 C23.3333,476.0827 22.0267,474.776 20.4167,474.776 M21,475.9427 C21.6417,475.9427 22.1667,476.4677 22.1667,477.1094 C22.1667,477.751 21.6417,478.276 21,478.276 C20.3583,478.276 19.8333,477.751 19.8333,477.1094 C19.8333,476.4677 20.3583,475.9427 21,475.9427 " fill="#B8861B" style="stroke:;stroke-width:0.0;stroke-dasharray:;"/><text fill="#000000" font-family="sans-serif" font-size="14" font-weight="bold" lengthAdjust="spacing" textLength="111" x="28.3333" y="484.5332">UTC_Timestamp</text><text fill="#000000" font-family="sans-serif" font-size="14" lengthAdjust="spacing" textLength="193" x="139.3333" y="484.5332">: Time stamp without time zone</text><path d="M20.4167,492.3854 C18.8067,492.3854 17.5,493.6921 17.5,495.3021 C17.5,495.4888 17.5,495.6754 17.535,495.8504 L14,499.3854 L14,501.7188 L17.5,501.7188 L17.5,499.3854 L19.8333,499.3854 L19.8333,498.2188 L19.8683,498.1838 C20.0433,498.2188 20.23,498.2188 20.4167,498.2188 C22.0267,498.2188 23.3333,496.9121 23.3333,495.3021 C23.3333,493.6921 22.0267,492.3854 20.4167,492.3854 M21,493.5521 C21.6417,493.5521 22.1667,494.0771 22.1667,494.7188 C22.1667,495.3604 21.6417,495.8854 21,495.8854 C20.3583,495.8854 19.8333,495.3604 19.8333,494.7188 C19.8333,494.0771 20.3583,493.5521 21,493.5521 " fill="#AAAAAA" style="stroke:;stroke-width:0.0;stroke-dasharray:;"/><text fill="#000000" font-family="sans-serif" font-size="14" lengthAdjust="spacing" textLength="140" x="28.3333" y="502.1426">CAID: Character array</text><text fill="#000000" font-family="sans-serif" font-size="14" lengthAdjust="spacing" textLength="4" x="13" y="519.752"> </text><path d="M17.5,527.6042 C15.5633,527.6042 14,529.1675 14,531.1042 C14,533.0408 15.5633,534.6042 17.5,534.6042 C19.4367,534.6042 21,533.0408 21,531.1042 C21,529.1675 19.4367,527.6042 17.5,527.6042 " fill="#EFEFEF" style="stroke:;stroke-width:0.0;stroke-dasharray:;"/><text fill="#000000" font-family="sans-serif" font-size="14" lengthAdjust="spacing" textLength="154" x="28.3333" y="537.3613">id_type: Character array</text><path d="M17.5,545.2135 C15.5633,545.2135 14,546.7769 14,548.7135 C14,550.6502 15.5633,552.2135 17.5,552.2135 C19.4367,552.2135 21,550.6502 21,548.7135 C21,546.7769 19.4367,545.2135 17.5,545.2135 " fill="#EFEFEF" style="stroke:;stroke-width:0.0;stroke-dasharray:;"/><text fill="#000000" font-family="sans-serif" font-size="14" lengthAdjust="spacing" textLength="152" x="28.3333" y="554.9707">brands: Character array</text><line style="stroke:#181818;stroke-width:0.5;" x1="8" x2="337.3333" y1="562.0469" y2="562.0469"/></g><!--MD5=[77c29ebc41cf504c8fe05547c5db9e71]
class Address-location--><g id="elem_Address-location"><rect codeLine="24" fill="#F1F1F1" height="241.7031" id="Address-location" rx="2.5" ry="2.5" style="stroke:#181818;stroke-width:0.5;" width="331.3333" x="7" y="630"/><ellipse cx="115.4167" cy="646" fill="#FFFFFF" rx="11" ry="11" style="stroke:#181818;stroke-width:1.0;"/><path d="M116.3385,643.3906 L116.3385,650.0469 L117.4948,650.0469 Q118.1042,650.0469 118.362,650.2813 Q118.6198,650.5156 118.6198,650.9063 Q118.6198,651.2813 118.362,651.5156 Q118.1042,651.75 117.4948,651.75 L113.5104,651.75 Q112.8854,651.75 112.6276,651.5156 Q112.3698,651.2813 112.3698,650.8906 Q112.3698,650.5156 112.6276,650.2813 Q112.8854,650.0469 113.5104,650.0469 L114.6354,650.0469 L114.6354,643.3906 L112.7917,643.3906 L112.7917,645 Q112.7917,645.6094 112.5573,645.875 Q112.3229,646.1406 111.9479,646.1406 Q111.5729,646.1406 111.3385,645.875 Q111.1042,645.6094 111.1042,645 L111.1042,641.6875 L119.9167,641.6875 L119.9167,645 Q119.9167,645.6094 119.6745,645.875 Q119.4323,646.1406 119.0573,646.1406 Q118.6823,646.1406 118.4479,645.875 Q118.2135,645.6094 118.2135,645 L118.2135,643.3906 L116.3385,643.3906 Z " fill="#000000"/><text fill="#000000" font-family="sans-serif" font-size="14" lengthAdjust="spacing" textLength="106" x="135.9167" y="651.7285">Address-location</text><line style="stroke:#181818;stroke-width:0.5;" x1="8" x2="337.3333" y1="662" y2="662"/><path d="M20.4167,670.776 C18.8067,670.776 17.5,672.0827 17.5,673.6927 C17.5,673.8794 17.5,674.066 17.535,674.241 L14,677.776 L14,680.1094 L17.5,680.1094 L17.5,677.776 L19.8333,677.776 L19.8333,676.6094 L19.8683,676.5744 C20.0433,676.6094 20.23,676.6094 20.4167,676.6094 C22.0267,676.6094 23.3333,675.3027 23.3333,673.6927 C23.3333,672.0827 22.0267,670.776 20.4167,670.776 M21,671.9427 C21.6417,671.9427 22.1667,672.4677 22.1667,673.1094 C22.1667,673.751 21.6417,674.276 21,674.276 C20.3583,674.276 19.8333,673.751 19.8333,673.1094 C19.8333,672.4677 20.3583,671.9427 21,671.9427 " fill="#B8861B" style="stroke:;stroke-width:0.0;stroke-dasharray:;"/><text fill="#000000" font-family="sans-serif" font-size="14" font-weight="bold" lengthAdjust="spacing" textLength="111" x="28.3333" y="680.5332">UTC_Timestamp</text><text fill="#000000" font-family="sans-serif" font-size="14" lengthAdjust="spacing" textLength="193" x="139.3333" y="680.5332">: Time stamp without time zone</text><path d="M20.4167,688.3854 C18.8067,688.3854 17.5,689.6921 17.5,691.3021 C17.5,691.4888 17.5,691.6754 17.535,691.8504 L14,695.3854 L14,697.7188 L17.5,697.7188 L17.5,695.3854 L19.8333,695.3854 L19.8333,694.2188 L19.8683,694.1837 C20.0433,694.2188 20.23,694.2188 20.4167,694.2188 C22.0267,694.2188 23.3333,692.9121 23.3333,691.3021 C23.3333,689.6921 22.0267,688.3854 20.4167,688.3854 M21,689.5521 C21.6417,689.5521 22.1667,690.0771 22.1667,690.7188 C22.1667,691.3604 21.6417,691.8854 21,691.8854 C20.3583,691.8854 19.8333,691.3604 19.8333,690.7188 C19.8333,690.0771 20.3583,689.5521 21,689.5521 " fill="#AAAAAA" style="stroke:;stroke-width:0.0;stroke-dasharray:;"/><text fill="#000000" font-family="sans-serif" font-size="14" lengthAdjust="spacing" textLength="140" x="28.3333" y="698.1426">CAID: Character array</text><text fill="#000000" font-family="sans-serif" font-size="14" lengthAdjust="spacing" textLength="4" x="13" y="715.752"> </text><path d="M17.5,723.6042 C15.5633,723.6042 14,725.1675 14,727.1042 C14,729.0408 15.5633,730.6042 17.5,730.6042 C19.4367,730.6042 21,729.0408 21,727.1042 C21,725.1675 19.4367,723.6042 17.5,723.6042 " fill="#EFEFEF" style="stroke:;stroke-width:0.0;stroke-dasharray:;"/><text fill="#000000" font-family="sans-serif" font-size="14" lengthAdjust="spacing" textLength="191" x="28.3333" y="733.3613">top_category: Character array</text><path d="M17.5,741.2135 C15.5633,741.2135 14,742.7769 14,744.7135 C14,746.6502 15.5633,748.2135 17.5,748.2135 C19.4367,748.2135 21,746.6502 21,744.7135 C21,742.7769 19.4367,741.2135 17.5,741.2135 " fill="#EFEFEF" style="stroke:;stroke-width:0.0;stroke-dasharray:;"/><text fill="#000000" font-family="sans-serif" font-size="14" lengthAdjust="spacing" textLength="194" x="28.3333" y="750.9707">sub_category: Character array</text><path d="M17.5,758.8229 C15.5633,758.8229 14,760.3863 14,762.3229 C14,764.2596 15.5633,765.8229 17.5,765.8229 C19.4367,765.8229 21,764.2596 21,762.3229 C21,760.3863 19.4367,758.8229 17.5,758.8229 " fill="#EFEFEF" style="stroke:;stroke-width:0.0;stroke-dasharray:;"/><text fill="#000000" font-family="sans-serif" font-size="14" lengthAdjust="spacing" textLength="233" x="28.3333" y="768.5801">safegraph_place_id: Character array</text><path d="M17.5,776.4323 C15.5633,776.4323 14,777.9956 14,779.9323 C14,781.869 15.5633,783.4323 17.5,783.4323 C19.4367,783.4323 21,781.869 21,779.9323 C21,777.9956 19.4367,776.4323 17.5,776.4323 " fill="#EFEFEF" style="stroke:;stroke-width:0.0;stroke-dasharray:;"/><text fill="#000000" font-family="sans-serif" font-size="14" lengthAdjust="spacing" textLength="200" x="28.3333" y="786.1895">location_name: Character array</text><path d="M17.5,794.0417 C15.5633,794.0417 14,795.605 14,797.5417 C14,799.4783 15.5633,801.0417 17.5,801.0417 C19.4367,801.0417 21,799.4783 21,797.5417 C21,795.605 19.4367,794.0417 17.5,794.0417 " fill="#EFEFEF" style="stroke:;stroke-width:0.0;stroke-dasharray:;"/><text fill="#000000" font-family="sans-serif" font-size="14" lengthAdjust="spacing" textLength="179" x="28.3333" y="803.7988">geohash_5: Character array</text><path d="M17.5,811.651 C15.5633,811.651 14,813.2144 14,815.151 C14,817.0877 15.5633,818.651 17.5,818.651 C19.4367,818.651 21,817.0877 21,815.151 C21,813.2144 19.4367,811.651 17.5,811.651 " fill="#EFEFEF" style="stroke:;stroke-width:0.0;stroke-dasharray:;"/><text fill="#000000" font-family="sans-serif" font-size="14" lengthAdjust="spacing" textLength="148" x="28.3333" y="821.4082">naics_code: Big Integer</text><path d="M17.5,829.2604 C15.5633,829.2604 14,830.8238 14,832.7604 C14,834.6971 15.5633,836.2604 17.5,836.2604 C19.4367,836.2604 21,834.6971 21,832.7604 C21,830.8238 19.4367,829.2604 17.5,829.2604 " fill="#EFEFEF" style="stroke:;stroke-width:0.0;stroke-dasharray:;"/><text fill="#000000" font-family="sans-serif" font-size="14" lengthAdjust="spacing" textLength="239" x="28.3333" y="839.0176">census_block_group: Character array</text><path d="M17.5,846.8698 C15.5633,846.8698 14,848.4331 14,850.3698 C14,852.3065 15.5633,853.8698 17.5,853.8698 C19.4367,853.8698 21,852.3065 21,850.3698 C21,848.4331 19.4367,846.8698 17.5,846.8698 " fill="#EFEFEF" style="stroke:;stroke-width:0.0;stroke-dasharray:;"/><text fill="#000000" font-family="sans-serif" font-size="14" lengthAdjust="spacing" textLength="183" x="28.3333" y="856.627">placekey_id: Character array</text><line style="stroke:#181818;stroke-width:0.5;" x1="8" x2="337.3333" y1="863.7031" y2="863.7031"/></g><!--MD5=[5ac139acdf61142d17d10ebcee54117c]
class Zone-location--><g id="elem_Zone-location"><rect codeLine="38" fill="#F1F1F1" height="171.2656" id="Zone-location" rx="2.5" ry="2.5" style="stroke:#181818;stroke-width:0.5;" width="331.3333" x="7" y="203"/><ellipse cx="125.4167" cy="219" fill="#FFFFFF" rx="11" ry="11" style="stroke:#181818;stroke-width:1.0;"/><path d="M126.3385,216.3906 L126.3385,223.0469 L127.4948,223.0469 Q128.1042,223.0469 128.362,223.2813 Q128.6198,223.5156 128.6198,223.9063 Q128.6198,224.2813 128.362,224.5156 Q128.1042,224.75 127.4948,224.75 L123.5104,224.75 Q122.8854,224.75 122.6276,224.5156 Q122.3698,224.2813 122.3698,223.8906 Q122.3698,223.5156 122.6276,223.2813 Q122.8854,223.0469 123.5104,223.0469 L124.6354,223.0469 L124.6354,216.3906 L122.7917,216.3906 L122.7917,218 Q122.7917,218.6094 122.5573,218.875 Q122.3229,219.1406 121.9479,219.1406 Q121.5729,219.1406 121.3385,218.875 Q121.1042,218.6094 121.1042,218 L121.1042,214.6875 L129.9167,214.6875 L129.9167,218 Q129.9167,218.6094 129.6745,218.875 Q129.4323,219.1406 129.0573,219.1406 Q128.6823,219.1406 128.4479,218.875 Q128.2135,218.6094 128.2135,218 L128.2135,216.3906 L126.3385,216.3906 Z " fill="#000000"/><text fill="#000000" font-family="sans-serif" font-size="14" lengthAdjust="spacing" textLength="86" x="145.9167" y="224.7285">Zone-location</text><line style="stroke:#181818;stroke-width:0.5;" x1="8" x2="337.3333" y1="235" y2="235"/><path d="M20.4167,243.776 C18.8067,243.776 17.5,245.0827 17.5,246.6927 C17.5,246.8794 17.5,247.066 17.535,247.241 L14,250.776 L14,253.1094 L17.5,253.1094 L17.5,250.776 L19.8333,250.776 L19.8333,249.6094 L19.8683,249.5744 C20.0433,249.6094 20.23,249.6094 20.4167,249.6094 C22.0267,249.6094 23.3333,248.3027 23.3333,246.6927 C23.3333,245.0827 22.0267,243.776 20.4167,243.776 M21,244.9427 C21.6417,244.9427 22.1667,245.4677 22.1667,246.1094 C22.1667,246.751 21.6417,247.276 21,247.276 C20.3583,247.276 19.8333,246.751 19.8333,246.1094 C19.8333,245.4677 20.3583,244.9427 21,244.9427 " fill="#B8861B" style="stroke:;stroke-width:0.0;stroke-dasharray:;"/><text fill="#000000" font-family="sans-serif" font-size="14" font-weight="bold" lengthAdjust="spacing" textLength="111" x="28.3333" y="253.5332">UTC_Timestamp</text><text fill="#000000" font-family="sans-serif" font-size="14" lengthAdjust="spacing" textLength="193" x="139.3333" y="253.5332">: Time stamp without time zone</text><path d="M20.4167,261.3854 C18.8067,261.3854 17.5,262.6921 17.5,264.3021 C17.5,264.4888 17.5,264.6754 17.535,264.8504 L14,268.3854 L14,270.7188 L17.5,270.7188 L17.5,268.3854 L19.8333,268.3854 L19.8333,267.2188 L19.8683,267.1838 C20.0433,267.2188 20.23,267.2188 20.4167,267.2188 C22.0267,267.2188 23.3333,265.9121 23.3333,264.3021 C23.3333,262.6921 22.0267,261.3854 20.4167,261.3854 M21,262.5521 C21.6417,262.5521 22.1667,263.0771 22.1667,263.7188 C22.1667,264.3604 21.6417,264.8854 21,264.8854 C20.3583,264.8854 19.8333,264.3604 19.8333,263.7188 C19.8333,263.0771 20.3583,262.5521 21,262.5521 " fill="#AAAAAA" style="stroke:;stroke-width:0.0;stroke-dasharray:;"/><text fill="#000000" font-family="sans-serif" font-size="14" lengthAdjust="spacing" textLength="140" x="28.3333" y="271.1426">CAID: Character array</text><text fill="#000000" font-family="sans-serif" font-size="14" lengthAdjust="spacing" textLength="4" x="13" y="288.752"> </text><path d="M17.5,296.6042 C15.5633,296.6042 14,298.1675 14,300.1042 C14,302.0408 15.5633,303.6042 17.5,303.6042 C19.4367,303.6042 21,302.0408 21,300.1042 C21,298.1675 19.4367,296.6042 17.5,296.6042 " fill="#EFEFEF" style="stroke:;stroke-width:0.0;stroke-dasharray:;"/><text fill="#000000" font-family="sans-serif" font-size="14" lengthAdjust="spacing" textLength="199" x="28.3333" y="306.3613">stree_address: Character array</text><path d="M17.5,314.2135 C15.5633,314.2135 14,315.7769 14,317.7135 C14,319.6502 15.5633,321.2135 17.5,321.2135 C19.4367,321.2135 21,319.6502 21,317.7135 C21,315.7769 19.4367,314.2135 17.5,314.2135 " fill="#EFEFEF" style="stroke:;stroke-width:0.0;stroke-dasharray:;"/><text fill="#000000" font-family="sans-serif" font-size="14" lengthAdjust="spacing" textLength="129" x="28.3333" y="323.9707">city: Character array</text><path d="M17.5,331.8229 C15.5633,331.8229 14,333.3862 14,335.3229 C14,337.2596 15.5633,338.8229 17.5,338.8229 C19.4367,338.8229 21,337.2596 21,335.3229 C21,333.3862 19.4367,331.8229 17.5,331.8229 " fill="#EFEFEF" style="stroke:;stroke-width:0.0;stroke-dasharray:;"/><text fill="#000000" font-family="sans-serif" font-size="14" lengthAdjust="spacing" textLength="139" x="28.3333" y="341.5801">state: Character array</text><path d="M17.5,349.4323 C15.5633,349.4323 14,350.9956 14,352.9323 C14,354.869 15.5633,356.4323 17.5,356.4323 C19.4367,356.4323 21,354.869 21,352.9323 C21,350.9956 19.4367,349.4323 17.5,349.4323 " fill="#EFEFEF" style="stroke:;stroke-width:0.0;stroke-dasharray:;"/><text fill="#000000" font-family="sans-serif" font-size="14" lengthAdjust="spacing" textLength="164" x="28.3333" y="359.1895">zip_code: Character array</text><line style="stroke:#181818;stroke-width:0.5;" x1="8" x2="337.3333" y1="366.2656" y2="366.2656"/></g><!--MD5=[6bba644d2c56ca0068313f243a99428b]
link Time-stamps to Zone-location--><g id="link_Time-stamps_Zone-location"><path codeLine="48" d="M172.5,151.33 C172.5,165.45 172.5,180.36 172.5,194.93 " fill="none" id="Time-stamps-Zone-location" style="stroke:#181818;stroke-width:1.0;"/><line style="stroke:#181818;stroke-width:1.0;" x1="176.5" x2="168.5" y1="198.98" y2="198.98"/><line style="stroke:#181818;stroke-width:1.0;" x1="176.5" x2="168.5" y1="195.98" y2="195.98"/><line style="stroke:#181818;stroke-width:1.0;" x1="172.5" x2="172.5" y1="194.98" y2="202.98"/><line style="stroke:#181818;stroke-width:1.0;" x1="172.5" x2="166.5" y1="151.21" y2="143.21"/><line style="stroke:#181818;stroke-width:1.0;" x1="172.5" x2="178.5" y1="151.21" y2="143.21"/><line style="stroke:#181818;stroke-width:1.0;" x1="172.5" x2="172.5" y1="151.21" y2="143.21"/><line style="stroke:#181818;stroke-width:1.0;" x1="168.5" x2="176.5" y1="153.21" y2="153.21"/></g><!--MD5=[73958bf135dae0125467a8f0314d2f38]
link Zone-location to Device-Info--><g id="link_Zone-location_Device-Info"><path codeLine="49" d="M172.5,382.45 C172.5,396.92 172.5,411.72 172.5,425.73 " fill="none" id="Zone-location-Device-Info" style="stroke:#181818;stroke-width:1.0;"/><line style="stroke:#181818;stroke-width:1.0;" x1="176.5" x2="168.5" y1="429.88" y2="429.88"/><line style="stroke:#181818;stroke-width:1.0;" x1="176.5" x2="168.5" y1="426.88" y2="426.88"/><line style="stroke:#181818;stroke-width:1.0;" x1="172.5" x2="172.5" y1="425.88" y2="433.88"/><line style="stroke:#181818;stroke-width:1.0;" x1="172.5" x2="166.5" y1="382" y2="374"/><line style="stroke:#181818;stroke-width:1.0;" x1="172.5" x2="178.5" y1="382" y2="374"/><line style="stroke:#181818;stroke-width:1.0;" x1="172.5" x2="172.5" y1="382" y2="374"/><line style="stroke:#181818;stroke-width:1.0;" x1="168.5" x2="176.5" y1="384" y2="384"/></g><!--MD5=[7ce86d5c58a7276e4212d97aee9bd256]
link Device-Info to Address-location--><g id="link_Device-Info_Address-location"><path codeLine="50" d="M172.5,578.51 C172.5,592.17 172.5,606.75 172.5,621.44 " fill="none" id="Device-Info-Address-location" style="stroke:#181818;stroke-width:1.0;"/><line style="stroke:#181818;stroke-width:1.0;" x1="176.5" x2="168.5" y1="625.6" y2="625.6"/><line style="stroke:#181818;stroke-width:1.0;" x1="176.5" x2="168.5" y1="622.6" y2="622.6"/><line style="stroke:#181818;stroke-width:1.0;" x1="172.5" x2="172.5" y1="621.6" y2="629.6"/><line style="stroke:#181818;stroke-width:1.0;" x1="172.5" x2="166.5" y1="578.17" y2="570.17"/><line style="stroke:#181818;stroke-width:1.0;" x1="172.5" x2="178.5" y1="578.17" y2="570.17"/><line style="stroke:#181818;stroke-width:1.0;" x1="172.5" x2="172.5" y1="578.17" y2="570.17"/><line style="stroke:#181818;stroke-width:1.0;" x1="168.5" x2="176.5" y1="580.17" y2="580.17"/></g><!--MD5=[ab6f1c8c78830fcca0e65cef1792361d]
@startuml dataBaseSchema

!define primary_key(x) <b><color:#b8861b><&key></color> x</b>
!define foreign_key(x) <color:#aaaaaa><&key></color> x
!define column(x) <color:#efefef><&media-record></color> x
!define table(x) entity x << (T, white) >>

' 
table( "Time-stamps" ) {
  primary_key( UTC_Timestamp  ): Time stamp without time zone 
  foreign_key( CAID ): Character array

  column( "Minimum_dwell" ): Big int 
  column( "local_timestamp"): Time stamp without time zone 
}

table("Device-Info"){
  primary_key( UTC_Timestamp  ): Time stamp without time zone
  foreign_key( CAID ): Character array

  column(id_type): Character array 
  column(brands): Character array
}

table("Address-location"){
  primary_key( UTC_Timestamp  ): Time stamp without time zone
  foreign_key( CAID ): Character array

  column(top_category): Character array
  column(sub_category): Character array
  column(safegraph_place_id): Character array
  column(location_name): Character array
  column(geohash_5): Character array
  column(naics_code): Big Integer
  column(census_block_group): Character array
  column(placekey_id): Character array
}

table( "Zone-location" ) {
  primary_key( UTC_Timestamp  ): Time stamp without time zone
  foreign_key( CAID ): Character array

  column(stree_address): Character array
  column(city): Character array
  column(state): Character array
  column(zip_code): Character array
}

"Time-stamps" }|- -|| "Zone-location"
"Zone-location" }|- -|| "Device-Info"
"Device-Info" }|- -|| "Address-location"

@enduml

@startuml dataBaseSchema


entity Time-stamps << (T, white) >> {
  <b><color:#b8861b><&key></color> UTC_Timestamp</b>: Time stamp without time zone 
  <color:#aaaaaa><&key></color> CAID: Character array

  <color:#efefef><&media-record></color> Minimum_dwell: Big int 
  <color:#efefef><&media-record></color> local_timestamp: Time stamp without time zone 
}

entity Device-Info << (T, white) >>{
  <b><color:#b8861b><&key></color> UTC_Timestamp</b>: Time stamp without time zone
  <color:#aaaaaa><&key></color> CAID: Character array

  <color:#efefef><&media-record></color> id_type: Character array 
  <color:#efefef><&media-record></color> brands: Character array
}

entity Address-location << (T, white) >>{
  <b><color:#b8861b><&key></color> UTC_Timestamp</b>: Time stamp without time zone
  <color:#aaaaaa><&key></color> CAID: Character array

  <color:#efefef><&media-record></color> top_category: Character array
  <color:#efefef><&media-record></color> sub_category: Character array
  <color:#efefef><&media-record></color> safegraph_place_id: Character array
  <color:#efefef><&media-record></color> location_name: Character array
  <color:#efefef><&media-record></color> geohash_5: Character array
  <color:#efefef><&media-record></color> naics_code: Big Integer
  <color:#efefef><&media-record></color> census_block_group: Character array
  <color:#efefef><&media-record></color> placekey_id: Character array
}

entity Zone-location << (T, white) >> {
  <b><color:#b8861b><&key></color> UTC_Timestamp</b>: Time stamp without time zone
  <color:#aaaaaa><&key></color> CAID: Character array

  <color:#efefef><&media-record></color> stree_address: Character array
  <color:#efefef><&media-record></color> city: Character array
  <color:#efefef><&media-record></color> state: Character array
  <color:#efefef><&media-record></color> zip_code: Character array
}

"Time-stamps" }|- -|| "Zone-location"
"Zone-location" }|- -|| "Device-Info"
"Device-Info" }|- -|| "Address-location"

@enduml

PlantUML version 1.2022.7(Mon Aug 22 13:01:30 EDT 2022)
(GPL source distribution)
Java Runtime: Java(TM) SE Runtime Environment
JVM: Java HotSpot(TM) 64-Bit Server VM
Default Encoding: Cp1252
Language: en
Country: US
--></g></svg>